<svg id="Layer_1" data-name="Layer 1" xmlns="http://www.w3.org/2000/svg" viewBox="0 0 24 24"><defs><style>.cls-1{fill:#fff;}</style></defs><title>ko-fi (1)</title><path class="cls-1" d="M3.25,19.75H3.18A3.45,3.45,0,0,1,0,16.61C0,12.48,0,5.79,0,5.72a1.47,1.47,0,0,1,1.4-1.47h17a6.23,6.23,0,0,1,5.39,4.81,5.77,5.77,0,0,1-1.23,5,7,7,0,0,1-5.16,2.25,3.57,3.57,0,0,1-3.14,3.39h-.12c-3.54,0-11,.05-11,.05ZM1.54,5.82s-.08,6.66,0,10.72a1.94,1.94,0,0,0,1.77,1.71c.63,0,7.46,0,10.86-.05.54-.09,1.91-.4,1.86-2.65a.76.76,0,0,1,.23-.55.71.71,0,0,1,.56-.21,5.73,5.73,0,0,0,4.7-1.72,4.27,4.27,0,0,0,.9-3.72c-.63-3.17-4-3.6-4-3.61H1.55a.17.17,0,0,0,0,.07Z"/><path class="cls-1" d="M17.48,13.75c-.46,0-.78,0-.8,0A.75.75,0,0,1,16,13V7.75A.76.76,0,0,1,16.75,7h1.78l.17,0a3.18,3.18,0,0,1,2.47,3.08,3.44,3.44,0,0,1-2.5,3.56.61.61,0,0,1-.13,0A8.35,8.35,0,0,1,17.48,13.75Zm0-5.25v3.75a7.59,7.59,0,0,0,.79,0,2,2,0,0,0,1.38-2.11,1.66,1.66,0,0,0-1.23-1.6Zm-9,8.5a1.13,1.13,0,0,1-.46-.1l-.11-.06-.19-.15c-.1-.09-.34-.3-.67-.57a34.52,34.52,0,0,1-3.27-3,3.22,3.22,0,0,1,0-4.26h0a3.79,3.79,0,0,1,4.7-.09,3.78,3.78,0,0,1,3.6-.56,2.85,2.85,0,0,1,1.84,2,3.34,3.34,0,0,1-.88,3c-1.21,1.29-3.8,3.45-3.91,3.54A1,1,0,0,1,8.51,17Zm-.32-1.39,0,0Zm.58,0h0ZM4.83,10A1.81,1.81,0,0,0,5,12.2,38.37,38.37,0,0,0,8.05,15l.45.38c.75-.63,2.55-2.19,3.46-3.15a1.86,1.86,0,0,0,.51-1.6,1.37,1.37,0,0,0-.93-1A2.52,2.52,0,0,0,9,10.3a.73.73,0,0,1-.54.23A.87.87,0,0,1,8,10.31,2.39,2.39,0,0,0,4.83,10Z"/></svg>