<svg xmlns="http://www.w3.org/2000/svg" viewBox="0 0 86.27 128.48"><defs><style>.cls-1{fill:#fff;}</style></defs><title>Asset 1</title><g id="Layer_2" data-name="Layer 2"><g id="Layer_1-2" data-name="Layer 1"><path class="cls-1" d="M35.08,92.94c-.24.57-.39,1-.56,1.36a13.39,13.39,0,0,0-.92,2A50.25,50.25,0,0,1,30,105.62c-.95,2-1.57,4.07-3,5.75-.41.47-.85.9-1.44,1.51a12.65,12.65,0,0,0,1.52-.23,11.9,11.9,0,0,0,2.36-.79,21,21,0,0,0,7-5.41c2.28-2.83,4.75-5.5,7-8.35,1.46-1.86,2.7-3.9,4-5.9.84-1.32,1.54-2.74,2.37-4.08A3.19,3.19,0,0,0,50,85.77a49.58,49.58,0,0,1-.24-5.45c0-7.9.13-15.81.17-23.72V40.2c0-1.19.28-1.39,1.42-1.19,1.41.25,2.84.37,4.24.63,1.66.32,3.3.76,5,1.09a1.41,1.41,0,0,0,1.1-.16c2.52-2.32,5-4.68,7.49-7,.91-.86,1.81-1.73,2.74-2.57.38-.32.79-.62,1.2-.9,1,.95,2.31,2.06,3.53,3.21a5.21,5.21,0,0,1,.89,1.15c1.46,2.41,3.87,4.1,5.07,6.72.46,1,1.32,1.78,1.76,2.76a27.23,27.23,0,0,1,1.34,4,11.87,11.87,0,0,1,.51,2.77A15.35,15.35,0,0,1,85,57.57c-.38.87-.73,1.77-1.12,2.64-.06.15-.24.24-.43.41-.21-.21-.4-.43-.59-.66-.89-1.23-1.7-2.52-2.64-3.71a22.8,22.8,0,0,0-3-3.29A49.33,49.33,0,0,0,73,50a9.67,9.67,0,0,0-1.49-.9c-1.8-.83-3.61-1.64-5.44-2.41-1.23-.52-2.49-1-3.75-1.41a1,1,0,0,0-.8.17c-1,.69-1.86,1.47-2.85,2.13s-2.31,1.42-3.48,2.1c-.65.37-1.15.69-1.14,1.63,0,8.46,0,16.92.06,25.38q.14,3.43.6,6.84c.24,2.12.57,4.24.89,6.35.27,1.76.5,3.53.92,5.25.37,1.54.82,3.06,1.34,4.55.31.92.63,1.83,1,2.71a27.52,27.52,0,0,0,4.87,7.86A58.18,58.18,0,0,0,69.31,115,14,14,0,0,0,71,116c.19.13.42.44.38.61a.92.92,0,0,1-.55.56c-1,.44-2.11.82-3.16,1.25a12.86,12.86,0,0,1-6.56.67,9.62,9.62,0,0,1-1.93-.11,35.21,35.21,0,0,1-4.08-1.54c-1.79-.81-3.31-.71-4.12,1.44a18.67,18.67,0,0,1-3.07,5.29c-.91,1.11-1.89,2.16-2.85,3.22a2.51,2.51,0,0,1-3.51.58,3,3,0,0,1-.49-.46,43.15,43.15,0,0,1-3.39-4c-.92-1.3-1.53-2.81-2.39-4.16-.57-.9-.66-2.35-2.2-2.33a5.41,5.41,0,0,0-1.64.26c-.93.33-1.81.81-2.73,1.17a6.26,6.26,0,0,1-1.91.55,43,43,0,0,1-6.22,0,19.21,19.21,0,0,1-4.09-1.28,7.64,7.64,0,0,1-1.28-.56,1,1,0,0,1-.46-.54.93.93,0,0,1,.37-.61c2-1.48,4.06-2.86,6-4.44a14.4,14.4,0,0,0,2.62-3.15c1.19-1.81,2.3-3.67,3.31-5.58a23.49,23.49,0,0,0,1.31-3.54c.44-1.33.87-2.67,1.26-4,.23-.82.37-1.66.56-2.48.15-.65.35-1.3.48-2s.22-1.43.32-2.15c.24-1.65.56-3.3.68-5,.19-2.81.33-5.64.35-8.47.06-8.1,0-16.21.06-24.31a1.21,1.21,0,0,0-.62-1.21c-2.18-1.42-4.33-2.9-6.47-4.38a.93.93,0,0,0-1.18,0,12.84,12.84,0,0,1-2,.8c-1.59.6-3.17,1.23-4.77,1.77a25.73,25.73,0,0,0-6.71,3.89,21.58,21.58,0,0,0-5.28,5.5c-.65,1-1.26,2-1.91,2.94-.36.53-.72.2-.89-.13-2-4-3-8.2-1.67-12.74.47-1.66,1.32-3.11,1.81-4.7a14.09,14.09,0,0,1,2.9-4.58c1.1-1.37,2.25-2.68,3.39-4,.25-.28.57-.5.79-.79.91-1.2,1.73-2.46,2.68-3.61,2.1-2.53,4.24-5,6.4-7.5a37.3,37.3,0,0,1,3.48-3.63c.52-.46,1.18-.79,1.69-1.32,1.53-1.58,3.22-3,4.63-4.7A18.34,18.34,0,0,1,32.49,8.6a11.34,11.34,0,0,0,2.45-2.13,32,32,0,0,1,3.32-2.83C39.63,2.51,41,1.42,42.38.28A.81.81,0,0,1,43.53.2h0C44.63,1,45.8,1.65,46.82,2.5s1.86,1.88,2.82,2.79c.78.74,1.59,1.45,2.44,2.13,1.44,1.15,3,2.21,4.37,3.4.64.53,1.06,1.31,1.65,1.91s1.45,1.36,2.15,2.06c.93.93,1.79,1.92,2.73,2.83s1.71,1.43,2.47,2.24c1.7,1.82,3.33,3.7,5,5.56l.06.07c.29.39.91,1,.82,1.14a20.3,20.3,0,0,1-2.12,2.42,2.09,2.09,0,0,1-.57-.3c-1.66-1.78-3.29-3.59-5-5.35a1.37,1.37,0,0,0-1.08-.35c-1.33.24-2.64.7-4,.85-2,.23-4,.29-6.08.39H49.83c.09-1.65.18-3.27.27-4.89A11.76,11.76,0,0,1,50.19,18c.32-1.76.69-3.5,1-5.25a1,1,0,0,0-.22-.83c-2.35-1.81-4.75-3.55-7.06-5.41a1.17,1.17,0,0,0-1.6,0C40,8.22,37.67,10,35.37,11.83c-.17.14-.36.47-.31.64a20.1,20.1,0,0,1,1.1,6.74c0,1.48.16,3,.28,4.43.05.65-.15.79-.8.73-.84-.08-1.7,0-2.55,0a15.2,15.2,0,0,1-1.9-.09c-1.79-.24-3.63-.14-5.34-1A6.54,6.54,0,0,0,23.48,23a1.19,1.19,0,0,0-.76.35c-2.16,2.34-4.29,4.71-6.47,7A1.08,1.08,0,0,0,16,31.82l.08.1a16.38,16.38,0,0,0,3.55,3.74,14.69,14.69,0,0,1,1.64,1.71Q23,39,24.79,40.48a1.27,1.27,0,0,0,1,.18c1.59-.35,3.15-.81,4.75-1.12s3.29-.5,5-.71c.91-.12,1,.55,1,1.19V76c0,.81.19,1.63.17,2.45a34.87,34.87,0,0,1-.29,7c-.44,2.09.71,3.35,1.54,4.81,1.11,2,2.44,3.8,3.64,5.72a1.1,1.1,0,0,1,0,1c-.41.67-1,1.26-1.4,1.92s-.56.44-.89,0C37.86,97,36.55,95.07,35.08,92.94ZM50,112.78a5.88,5.88,0,0,0-.71-1.55,41,41,0,0,1-5.38-6.45c-.4-.68-.9-.64-1.38,0s-1.1,1.46-1.7,2.13c-1.26,1.4-2.59,2.74-3.83,4.15-.48.55-1,1.2-.7,2A24.79,24.79,0,0,0,38,117a30.74,30.74,0,0,0,3.17,4.17c.93,1.06,2,1.61,3.5.23a20,20,0,0,0,4-5.4A31.12,31.12,0,0,0,50,112.78Zm10.64.17v-.23a10.45,10.45,0,0,1-1.23-1.42c-1-1.6-1.87-3.21-2.72-4.87s-1.7-3.39-2.43-5.13c-.58-1.37-1-2.81-1.44-4.22s-.89-2.66-1.33-4L51.17,93l-.47.72L48,97.61c-.62.92-1.18,1.88-1.86,2.74s-.78,1,0,1.84c1.05,1.22,2,2.55,3.11,3.71a44.76,44.76,0,0,0,4.38,4A17.3,17.3,0,0,0,57.28,112,22.77,22.77,0,0,0,60.59,113Zm6-70.74C72.43,44.4,77.84,46.86,82,51.48c-1-6.33-4.66-11.27-8.21-16.27Zm-54.07-7c-1.1,1.58-2.29,3.26-3.46,5a29.57,29.57,0,0,0-3.81,7.57c-.39,1.18-.69,2.43-1.09,3.77,4.35-4.66,9.71-7.22,15.58-9.57ZM55.25,15l-.34.12L54,19.59c1.91-.36,3.67,0,5.55-.82Zm-23.79.22L31.14,15l-4.63,4.06c1.8.16,3.33.22,4.83.44.79.12.89-.22.8-.79C31.94,17.52,31.69,16.36,31.46,15.21Z"/></g></g></svg>