<svg xmlns="http://www.w3.org/2000/svg" viewBox="0 0 265.49 377.07"><defs><style>.cls-1{fill:#fff;}</style></defs><title>Asset 3</title><g id="Layer_2" data-name="Layer 2"><g id="Layer_1-2" data-name="Layer 1"><path class="cls-1" d="M104.25,120.93c-.12-5.25-1.27-10.47-1.86-15.72-.29-2.52-.37-5.07-.54-7.61a5,5,0,0,0,0-.67c-.85-3.75-1.59-7.54-2.62-11.25A118.62,118.62,0,0,0,95,72.31a159.69,159.69,0,0,0-7.55-15.65A45.53,45.53,0,0,0,81,47.31a135.74,135.74,0,0,0-11.88-11c-2.19-1.85-4.82-3.16-7.2-4.79a2.26,2.26,0,0,1-1-1.5A2.15,2.15,0,0,1,62,28.62c7.17-3.56,14.65-5.92,22.78-5.41a51.32,51.32,0,0,1,8.87.94c2.7.66,5.21,2.08,7.82,3.13a22.53,22.53,0,0,0,4.59,1.65c2.87.47,4.12-.53,5.52-3.07,2.92-5.33,5.61-10.85,9.16-15.74,2.72-3.73,5.53-7.75,10.25-9.6a5.45,5.45,0,0,1,6.36,1.21,82.63,82.63,0,0,1,12.94,16.45A33.17,33.17,0,0,1,152.94,24c2.06,5.68,6.24,5.75,10.81,3.58a42,42,0,0,1,10.86-3.79,44,44,0,0,1,17.11.25,65.48,65.48,0,0,1,7.77,2.68,33.34,33.34,0,0,1,3.82,1.69c.61.31,1.53.94,1.49,1.36a2.7,2.7,0,0,1-1.27,1.84,61.17,61.17,0,0,0-15.67,12.11,68,68,0,0,0-9.19,11.76,143.32,143.32,0,0,0-7.58,15.86c-1.36,3.12-2.31,6.42-3.44,9.65a21.29,21.29,0,0,0-.79,2.33c-.77,3.47-1.57,6.93-2.21,10.42s-1.21,6.91-1.55,10.38c-.58,5.95-.85,11.93-1.45,17.87-2.48,24.72-.51,49.5-1.22,74.24a3.35,3.35,0,0,0,2.24,3.64c5.23,2,9.35,5.7,13.66,9.1,3.93,3.1,4,3,8.67,1,3-1.29,6.1-2.3,9.13-3.51,4.67-1.87,9.43-3.49,13.58-6.49,3.71-2.69,7.81-4.86,11.35-7.74,4.69-3.8,8.32-8.66,11.74-13.63,1.14-1.64,2.11-3.4,3.22-5.06.7-1,1.65-1.54,2.37-.07A45.94,45.94,0,0,1,239,179.6c1.19,3.81,2.61,7.64,3.11,11.56.43,3.41-.14,7-.52,10.45a36.48,36.48,0,0,1-5,14.82c-1.59,2.66.12,6.1,3.14,7.58,4.64,2.29,9.42,4.43,13.66,7.34a63.88,63.88,0,0,1,10.2,9.27c2.86,3,2.43,6.75-.57,9.5a80,80,0,0,1-6.35,5.6,108.13,108.13,0,0,1-9.22,6c-2.72,1.61-5.64,2.89-8.41,4.43-2.5,1.38-2.55,2.91-1.37,5.66,1.77,4.13,4,8.35,4.42,12.68.55,5.94-.42,12-.79,18-.3,5-3,9.09-4.89,13.51-.63,1.5-1.59,1.16-2.34.08-1.88-2.68-3.7-5.39-5.53-8.1a52.5,52.5,0,0,0-14.62-14.56A111.61,111.61,0,0,0,203.5,287c-3.68-1.9-7.61-3.32-11.47-4.86a50,50,0,0,0-5.75-1.85,2.63,2.63,0,0,0-2.13.27c-3.85,4-7.58,8.05-11.39,12.06-1.19,1.26-2.79,2.2-3.72,3.61a5.24,5.24,0,0,0-.68,3.88,59.05,59.05,0,0,0,3.4,8.2,126.34,126.34,0,0,0,6.11,11.93A109.37,109.37,0,0,0,186.33,332c4.29,5.24,9.92,9,15.38,12.89.42.3.93.46,1.37.73.65.4,1.29.84,1.93,1.26-.55.67-1,1.64-1.67,1.95-2.69,1.19-5.55,2-8.21,3.24-5.93,2.77-12.2,2.1-18.34,1.82a31,31,0,0,1-12.66-3.8c-2.3-1.19-4.74-3.54-7.7-1.26a8.94,8.94,0,0,0-2.48,2.46c-1.79,3.24-3.27,6.65-5.09,9.88a52.82,52.82,0,0,1-10.37,13.25c-1.36,1.25-2.56,2.43-4.7,2.63-3.65.34-5.93-1.58-8-4a143.69,143.69,0,0,1-9-11.39c-2.13-3.17-3.55-6.81-5.35-10.21-1.61-3-3.94-3.92-7-2.59-4.55,1.94-9,4.22-14,4.86-8,1-15.82.55-23.35-2.47a40.83,40.83,0,0,1-5.72-3c-1.38-.83-1.1-1.54.29-2.39a97,97,0,0,0,8.79-6,69.55,69.55,0,0,0,8.66-7.58,56.89,56.89,0,0,0,7.06-9.49c3.5-6,6.67-12.12,9.83-18.27a12.51,12.51,0,0,0,1.73-5.66,7.9,7.9,0,0,0-2.37-4.54c-3-3.14-6.28-6-9.38-9a18.45,18.45,0,0,1-3.15-3.7c-1.14-2-2.58-1.75-4.27-1.11-3.4,1.26-6.94,2.25-10.19,3.83-5,2.46-9.91,5.25-14.79,8a43.06,43.06,0,0,0-12,10.22c-3.49,4.27-6.7,8.76-9.94,13.23-1.08,1.49-1.44,1.6-2.4,0a44.11,44.11,0,0,1-5.91-23.32c0-6.42,1.72-12.41,3.8-18.36a23.82,23.82,0,0,1,1.71-3.33c1.09-2-.05-3.36-1.51-4.17-3.3-1.82-6.81-3.25-10.14-5a32,32,0,0,1-5.32-3.63c-3.31-2.77-6.57-5.62-9.71-8.57-2.74-2.58-2.94-5.67-.33-8.45a59,59,0,0,1,8.52-7.76c4.22-3,8.83-5.45,13.25-8.18a51.45,51.45,0,0,0,5.06-3.47c1.59-1.28,1.41-2.83.48-4.6a51.22,51.22,0,0,1-3.61-8.09A41.17,41.17,0,0,1,24,188.23c.69-3.52,2.16-6.89,3.33-10.31a23.26,23.26,0,0,1,1.58-3.7,8.71,8.71,0,0,1,1.59-1.69A12.93,12.93,0,0,1,31.71,174c4.56,7,9.21,14,16,19.07a123.37,123.37,0,0,0,15.6,10.16c4.64,2.45,9.83,3.83,14.79,5.66,1.53.57,3.4.7,4.58,1.67,2.52,2.06,4.32.43,6.14-.78,4.88-3.26,9.64-6.7,14.51-10a2.82,2.82,0,0,0,1.47-2.67c-.06-12.73,0-25.46,0-38.2M230.13,291.23c.38-1,.74-1.38.67-1.74a40.57,40.57,0,0,0-1.53-6.88,60.22,60.22,0,0,0-4.15-8.6c-2.61-4.48-5.4-8.87-8.27-13.19a49,49,0,0,0-3.89-4.3c-2.73-3.2-5.33-6.51-8.14-9.64-1.82-2-3.9-3.81-5.88-5.69-6.21-5.88-12.45-11.72-18.61-17.64a3,3,0,0,0-3.21-.7c-4.19,1-8.37,2-12.59,2.81-3.57.68-7.2,1-10.78,1.61-2.9.51-3.62,0-3.61-3,0-13.89.11-27.78,0-41.67-.1-20.09-.34-40.18-.43-60.28a133.25,133.25,0,0,1,.61-13.84c.19-1.86.83-3.64-.2-5.4-2.43-4.16-4.71-8.42-7.38-12.43-4.27-6.42-8.57-12.81-13.48-18.82-6.23-7.62-12.25-15.41-19.5-22.06-2.75-2.52-6.27-4.19-9.4-6.3a20.78,20.78,0,0,0-8.48-3.4c-1.08-.17-2.17-.28-3.26-.42A33.08,33.08,0,0,1,96,50c1.49,2.93,2.77,6,4.09,9,1.86,4.22,3.83,8.4,5.47,12.71s3,9,4.6,13.49a49.46,49.46,0,0,0,2.43,4.93c3.72-5.4,7.11-10.3,10.46-15.22.67-1,1.19-1.28,2-.17,1.32,1.81,2.76,3.54,4,5.42a2.41,2.41,0,0,1-.16,2.1c-3.06,4.87-6.41,9.56-9.26,14.54-2.17,3.77-5.08,7.08-3.93,12.43s.66,11.36.75,17.07c0,2.22-.41,4.45-.45,6.67-.07,4.11,0,8.22,0,12.33q0,29.25,0,58.49,0,10.32-.06,20.62c0,2.71-.92,3.44-3.58,3-1.18-.18-2.37-.29-3.54-.5-4.81-.85-9.74-1.35-14.41-2.7-6.75-2-6.68-2.22-11.87,2.12a33.21,33.21,0,0,0-2.47,2.27c-2.3,2.35-4.29,5.1-6.9,7-3.74,2.77-6.46,6.29-9.15,9.95a2.28,2.28,0,0,0,.27,3.19c2,2.36,4.06,4.71,6.17,7q5.16,5.58,10.43,11.05a3.21,3.21,0,0,0,2,1.09c2.11-.09,4.45,0,6.24-.85,4-2,8.26-1.82,12.45-2.36a47.64,47.64,0,0,1,5.73-.35c2.23,0,4.48.27,6.69.09,1.58-.13,2,.3,1.89,1.79-.32,5.81-.33,11.64-.94,17.42-.37,3.53-1.68,7-2.4,10.47a2.84,2.84,0,0,0,.79,2.23c2.1,1.89,4.28,3.7,6.53,5.39,3.8,2.86,7.64,5.66,11.55,8.36a3.32,3.32,0,0,0,2.76.53,43.5,43.5,0,0,0,5.46-3.86q5.79-4.45,11.52-9c1.69-1.34,3.6-2.69,1.47-5.17-.12-.14-.08-.43-.12-.65-.61-4.07-1.25-8.14-1.82-12.22-.11-.79.11-1.61.06-2.41-.26-4.18-.55-8.36-.84-12.73,2.63,0,4.78-.09,6.93,0,5.08.24,10.18.38,15.23,1,3.41.4,6.72,1.61,10.13,2.17a4.06,4.06,0,0,0,3.06-1.13c4.24-4.4,8.36-8.93,12.48-13.44.78-.85,1.49-.91,2.24-.08,1.48,1.66,3,3.29,4.37,5.05a2,2,0,0,1-.11,1.93c-1.6,2-3.37,3.81-5,5.72s-3.11,3.65-4.61,5.4c6.4,2.81,12.66,5.31,18.7,8.28A60.73,60.73,0,0,1,230.13,291.23ZM81.42,342.34c.53.16.8.35,1,.32,9.62-1.06,17.91-5.17,25.2-11.34,3.56-3,6.88-6.31,10.16-9.34l10.22,8.42c-3.22,3-6.57,6-9.67,9.17-.63.65-.38,2.28-.29,3.44,0,.61.75,1.13.93,1.76,1.66,5.63,5.18,10.14,8.87,14.5,2.81,3.32,6.58,3.92,9.54.27a104.13,104.13,0,0,0,7.28-10.36,20,20,0,0,0,2.53-6.07c.33-1.38.3-3.54-.54-4.4-3.37-3.44-7.07-6.57-10.74-9.7-1.67-1.42-3.62-2.5-5.35-3.86-3.36-2.64-6.76-5.26-10-8.08-3.8-3.35-7.42-6.91-11.13-10.36-.68-.63-1.46-1.16-2.65-2.09C102.49,320.16,93.74,332.29,81.42,342.34ZM35.5,291.7c10.06-10.64,23.16-15.38,35.94-20.55-5.93-7-12-14-17.84-21.13-1.66-2-2.68-4.55-4.3-6.62-2.68-3.45-5.71-6.63-8.42-10.06-3-3.84-4.5-4.51-9.51-1.92-1.59.81-3,1.93-4.67,2.62-4.1,1.72-7,4.9-10,7.93-1.4,1.4-1.85,3.37-.54,4.91a33.3,33.3,0,0,0,6.58,6.31c3.49,2.32,7.41,4,11.1,6,1.6.89,2.46.45,3.48-1,2.46-3.4,5.12-6.65,7.75-10l7.91,9.06a11.86,11.86,0,0,0-1.83,1.68c-2.92,4.17-6,8.24-8.61,12.61C38.87,277.62,34.92,283.68,35.5,291.7ZM150.43,40.07c-1-2.51-1.91-4.69-2.81-6.85A46.35,46.35,0,0,0,136.93,18c-3.7-3.62-6.47-2.14-8.89.46a64.76,64.76,0,0,0-11.67,18.2c-1.68,3.81-.41,6.06,1.94,8.64,4.46,4.91,8.79,9.94,13.13,15,1.19,1.38,2.43,1.49,3.37-.11,3.55-6,8.53-10.82,13.14-15.95A24.24,24.24,0,0,0,150.43,40.07Zm3.37,50.39c.9-2.66,1.56-4.59,2.21-6.53,1.8-5.34,3.38-10.76,5.44-16,1.71-4.33,4-8.42,6-12.64,2.62-5.58,5.12-11.23,10.6-15.63a13,13,0,0,0-2.66,0c-3.43.88-6.8,1.8-9.8,3.91-2.47,1.74-5.61,2.62-7.88,4.55a125.27,125.27,0,0,0-10.57,10.55c-2.58,2.79-4.91,5.81-7.24,8.81-.46.58-.87,1.79-.57,2.28,1.24,2.07,2.78,4,4.18,6,1.94,2.76,3.85,5.54,5.79,8.31Zm62.82,153.07c1.33,1.53,2.77,3.1,4.11,4.75,2.76,3.38,5.44,6.82,8.21,10.18.82,1,1.74,1.73,3.25.8,3.1-1.88,6.34-3.53,9.46-5.39a25.1,25.1,0,0,0,5-3.53c4.15-4.18,5.14-6,.28-10.47-3-2.8-6.64-5-10.12-7.21a17.78,17.78,0,0,0-5.62-2.58c-4-.87-6,2.12-8.09,4.82S218.89,240.51,216.62,243.53Zm-5.76-6.61c9-12.78,18.32-25.31,21-41.38-10.62,11.83-24.48,18-39.13,23.57C198.9,225.2,204.83,231,210.86,236.92ZM73.5,219.72c-7.6-3.6-14.52-6.62-21.18-10.13a59.74,59.74,0,0,1-18-14c2.56,16.28,12.06,28.79,20.92,41.24Q64.36,228.28,73.5,219.72Zm111.06,122.9.11-.62c-1.45-1-3.16-1.78-4.29-3.07-4.07-4.63-8.16-9.28-11.84-14.22A52.7,52.7,0,0,1,160,307.56c-.28-1-.75-1.92-1.23-3.12-5.22,4.89-10.08,9.46-15,14.07a7.19,7.19,0,0,0,.66.76c3.54,3.05,7.05,6.15,10.66,9.13,3.18,2.62,6.39,5.22,9.74,7.61,4.75,3.39,10.27,5,15.89,6.21A34.75,34.75,0,0,0,184.56,342.62ZM174.27,279l-.31-1.16-13.43-1.22L163,288.05l.82.18ZM91.2,278c3.82,3.91,7.11,7.82,12.06,10.07.64-3.27,1.28-6.23,1.78-9.22.19-1.12.18-2.26-1.67-2C99.43,277.23,95.47,277.54,91.2,278Z"/></g></g></svg>